<svg width="40" height="40" viewBox="0 0 40 40" fill="none" xmlns="http://www.w3.org/2000/svg">
<circle cx="20" cy="20" r="20" fill="#E03131"/>
<rect width="20" height="20" transform="translate(10 10)" fill="#E03131"/>
<path fill-rule="evenodd" clip-rule="evenodd" d="M17.5 15.625C17.1548 15.625 16.875 15.3452 16.875 15C16.875 14.6548 17.1548 14.375 17.5 14.375H25C25.3452 14.375 25.625 14.6548 25.625 15V22.5C25.625 22.8452 25.3452 23.125 25 23.125C24.6548 23.125 24.375 22.8452 24.375 22.5V16.5089L15.4419 25.4419C15.1979 25.686 14.8021 25.686 14.5581 25.4419C14.314 25.1979 14.314 24.8021 14.5581 24.5581L23.4911 15.625H17.5Z" fill="white"/>
</svg>
