<svg width="50" height="50" viewBox="0 0 50 50" fill="none" xmlns="http://www.w3.org/2000/svg">
<path fill-rule="evenodd" clip-rule="evenodd" d="M24.9999 6.77051C25.8629 6.77051 26.5624 7.47006 26.5624 8.33301L26.5624 41.6663C26.5624 42.5293 25.8629 43.2288 24.9999 43.2288C24.137 43.2288 23.4374 42.5293 23.4374 41.6663L23.4374 8.33301C23.4374 7.47006 24.137 6.77051 24.9999 6.77051ZM16.6666 13.0205C17.5295 13.0205 18.2291 13.7201 18.2291 14.583V35.4163C18.2291 36.2793 17.5295 36.9788 16.6666 36.9788C15.8036 36.9788 15.1041 36.2793 15.1041 35.4163V14.583C15.1041 13.7201 15.8036 13.0205 16.6666 13.0205ZM33.3333 13.0205C34.1962 13.0205 34.8958 13.7201 34.8958 14.583V35.4163C34.8958 36.2793 34.1962 36.9788 33.3333 36.9788C32.4703 36.9788 31.7708 36.2793 31.7708 35.4163V14.583C31.7708 13.7201 32.4703 13.0205 33.3333 13.0205ZM8.33325 21.3538C9.1962 21.3538 9.89575 22.0534 9.89575 22.9163L9.89575 27.083C9.89575 27.946 9.1962 28.6455 8.33325 28.6455C7.47031 28.6455 6.77075 27.946 6.77075 27.083L6.77075 22.9163C6.77075 22.0534 7.47031 21.3538 8.33325 21.3538ZM41.6666 21.3538C42.5295 21.3538 43.2291 22.0534 43.2291 22.9163V27.083C43.2291 27.946 42.5295 28.6455 41.6666 28.6455C40.8036 28.6455 40.1041 27.946 40.1041 27.083V22.9163C40.1041 22.0534 40.8036 21.3538 41.6666 21.3538Z" fill="white"/>
</svg>
