<svg width="15" height="15" viewBox="0 0 15 15" fill="none" xmlns="http://www.w3.org/2000/svg">
<path fill-rule="evenodd" clip-rule="evenodd" d="M1.5745 4.88921C1.25 5.48205 1.25 6.19718 1.25 7.62744V8.57812C1.25 11.0161 1.25 12.2352 1.98223 12.9926C2.71447 13.75 3.89297 13.75 6.25 13.75H8.75C11.107 13.75 12.2856 13.75 13.0177 12.9926C13.75 12.2352 13.75 11.0161 13.75 8.57812V7.62744C13.75 6.19718 13.75 5.48205 13.4255 4.88921C13.101 4.29638 12.5082 3.92844 11.3225 3.19257L10.0725 2.41679C8.81912 1.63893 8.19244 1.25 7.5 1.25C6.80756 1.25 6.18087 1.63893 4.92752 2.41679L3.67752 3.19258C2.49184 3.92844 1.899 4.29638 1.5745 4.88921ZM5.625 10.7812C5.36612 10.7812 5.15625 10.9911 5.15625 11.25C5.15625 11.5089 5.36612 11.7187 5.625 11.7187H9.375C9.63387 11.7187 9.84375 11.5089 9.84375 11.25C9.84375 10.9911 9.63387 10.7812 9.375 10.7812H5.625Z" fill="#E03131"/>
</svg>
