<svg width="37" height="37" viewBox="0 0 37 37" fill="none" xmlns="http://www.w3.org/2000/svg">
<path fill-rule="evenodd" clip-rule="evenodd" d="M18.2292 0C19.0921 0 19.7917 0.699555 19.7917 1.5625L19.7917 34.8958C19.7917 35.7588 19.0921 36.4583 18.2292 36.4583C17.3662 36.4583 16.6667 35.7588 16.6667 34.8958L16.6667 1.5625C16.6667 0.699555 17.3662 0 18.2292 0ZM9.89583 6.25C10.7588 6.25 11.4583 6.94955 11.4583 7.8125V28.6458C11.4583 29.5088 10.7588 30.2083 9.89583 30.2083C9.03289 30.2083 8.33333 29.5088 8.33333 28.6458V7.8125C8.33333 6.94955 9.03289 6.25 9.89583 6.25ZM26.5625 6.25C27.4254 6.25 28.125 6.94955 28.125 7.8125V28.6458C28.125 29.5088 27.4254 30.2083 26.5625 30.2083C25.6996 30.2083 25 29.5088 25 28.6458V7.8125C25 6.94955 25.6996 6.25 26.5625 6.25ZM1.5625 14.5833C2.42544 14.5833 3.125 15.2829 3.125 16.1458L3.125 20.3125C3.125 21.1754 2.42545 21.875 1.5625 21.875C0.699556 21.875 4.96705e-07 21.1754 4.96705e-07 20.3125L0 16.1458C-1.24176e-07 15.2829 0.699555 14.5833 1.5625 14.5833ZM34.8958 14.5833C35.7588 14.5833 36.4583 15.2829 36.4583 16.1458V20.3125C36.4583 21.1754 35.7588 21.875 34.8958 21.875C34.0329 21.875 33.3333 21.1754 33.3333 20.3125V16.1458C33.3333 15.2829 34.0329 14.5833 34.8958 14.5833Z" fill="#E03030"/>
</svg>
