<svg width="22" height="22" viewBox="0 0 22 22" fill="none" xmlns="http://www.w3.org/2000/svg">
<path fill-rule="evenodd" clip-rule="evenodd" d="M10.9375 0C11.4553 0 11.875 0.419733 11.875 0.9375L11.875 20.9375C11.875 21.4553 11.4553 21.875 10.9375 21.875C10.4197 21.875 10 21.4553 10 20.9375L10 0.9375C10 0.419733 10.4197 0 10.9375 0ZM5.9375 3.75C6.45527 3.75 6.875 4.16973 6.875 4.6875V17.1875C6.875 17.7053 6.45527 18.125 5.9375 18.125C5.41973 18.125 5 17.7053 5 17.1875V4.6875C5 4.16973 5.41973 3.75 5.9375 3.75ZM15.9375 3.75C16.4553 3.75 16.875 4.16973 16.875 4.6875V17.1875C16.875 17.7053 16.4553 18.125 15.9375 18.125C15.4197 18.125 15 17.7053 15 17.1875V4.6875C15 4.16973 15.4197 3.75 15.9375 3.75ZM0.9375 8.75C1.45527 8.75 1.875 9.16973 1.875 9.6875L1.875 12.1875C1.875 12.7053 1.45527 13.125 0.9375 13.125C0.419733 13.125 2.98023e-07 12.7053 2.98023e-07 12.1875L0 9.6875C-7.45058e-08 9.16973 0.419733 8.75 0.9375 8.75ZM20.9375 8.75C21.4553 8.75 21.875 9.16973 21.875 9.6875V12.1875C21.875 12.7053 21.4553 13.125 20.9375 13.125C20.4197 13.125 20 12.7053 20 12.1875V9.6875C20 9.16973 20.4197 8.75 20.9375 8.75Z" fill="white"/>
</svg>
