<svg width="40" height="40" viewBox="0 0 40 40" fill="none" xmlns="http://www.w3.org/2000/svg">
<rect x="0.5" y="0.5" width="39" height="39" rx="19.5" fill="url(#paint0_linear_1_673)"/>
<rect x="0.5" y="0.5" width="39" height="39" rx="19.5" stroke="url(#paint1_linear_1_673)"/>
<path fill-rule="evenodd" clip-rule="evenodd" d="M20 9.0625C20.5178 9.0625 20.9375 9.48223 20.9375 10L20.9375 30C20.9375 30.5178 20.5178 30.9375 20 30.9375C19.4822 30.9375 19.0625 30.5178 19.0625 30L19.0625 10C19.0625 9.48223 19.4822 9.0625 20 9.0625ZM15 12.8125C15.5178 12.8125 15.9375 13.2322 15.9375 13.75V26.25C15.9375 26.7678 15.5178 27.1875 15 27.1875C14.4822 27.1875 14.0625 26.7678 14.0625 26.25V13.75C14.0625 13.2322 14.4822 12.8125 15 12.8125ZM25 12.8125C25.5178 12.8125 25.9375 13.2322 25.9375 13.75V26.25C25.9375 26.7678 25.5178 27.1875 25 27.1875C24.4822 27.1875 24.0625 26.7678 24.0625 26.25V13.75C24.0625 13.2322 24.4822 12.8125 25 12.8125ZM10 17.8125C10.5178 17.8125 10.9375 18.2322 10.9375 18.75L10.9375 21.25C10.9375 21.7678 10.5178 22.1875 10 22.1875C9.48223 22.1875 9.0625 21.7678 9.0625 21.25L9.0625 18.75C9.0625 18.2322 9.48223 17.8125 10 17.8125ZM30 17.8125C30.5178 17.8125 30.9375 18.2322 30.9375 18.75V21.25C30.9375 21.7678 30.5178 22.1875 30 22.1875C29.4822 22.1875 29.0625 21.7678 29.0625 21.25V18.75C29.0625 18.2322 29.4822 17.8125 30 17.8125Z" fill="white"/>
<defs>
<linearGradient id="paint0_linear_1_673" x1="20" y1="0" x2="20" y2="40" gradientUnits="userSpaceOnUse">
<stop stop-color="#0C0C0C"/>
<stop offset="1" stop-color="#3D3D3D"/>
</linearGradient>
<linearGradient id="paint1_linear_1_673" x1="20" y1="0" x2="20" y2="40" gradientUnits="userSpaceOnUse">
<stop stop-color="white" stop-opacity="0"/>
<stop offset="1" stop-color="white" stop-opacity="0.24"/>
</linearGradient>
</defs>
</svg>
