<svg width="30" height="30" viewBox="0 0 30 30" fill="none" xmlns="http://www.w3.org/2000/svg">
<path fill-rule="evenodd" clip-rule="evenodd" d="M15.3223 29.9144C12.3782 29.9144 11.01 29.4827 8.63178 27.7561C7.12748 29.6986 2.36389 31.2166 2.15615 28.6194C2.15615 26.6697 1.72636 25.0222 1.23925 23.2236C0.659024 21.0077 0 18.54 0 14.9644C0 6.42462 6.97706 0 15.2435 0C23.5171 0 29.9999 6.74117 29.9999 15.0435C30.0277 23.2175 23.4608 29.8708 15.3223 29.9144ZM15.4441 7.38147C11.4183 7.17284 8.28078 9.97147 7.58594 14.3601C7.01287 17.9932 8.03006 22.4178 8.89682 22.648C9.31229 22.7488 10.3581 21.8998 11.01 21.2451C12.0879 21.993 13.3431 22.4421 14.649 22.5473C18.8203 22.7488 22.3846 19.5594 22.6647 15.3745C22.8277 11.1807 19.616 7.62866 15.4441 7.38867L15.4441 7.38147Z" fill="white"/>
</svg>
